<svg xmlns="http://www.w3.org/2000/svg" viewBox="0 0 100 125"><style type="text/css">  
	.st0{fill:none;stroke:#000000;stroke-width:2;stroke-linecap:round;stroke-linejoin:round;stroke-miterlimit:10;}
	.st1{fill:none;stroke:#000000;stroke-width:2;stroke-miterlimit:10;}
</style><path d="M10.6 65.8c0 6.4 2.5 12.5 7 17s10.6 7 17 7c6.4 0 12.5-2.5 17-7 4.3-4.3 6.8-10 7-16 6.1-0.2 11.7-2.7 16-7 4.5-4.5 7-10.6 7-17s-2.5-12.5-7-17c-0.1-0.1-0.3-0.2-0.4-0.3l10 0.3c0 0 0 0 0 0 0 0 0 0 0 0h0c0 0 0 0 0 0 0.1 0 0.2 0 0.4-0.1 0 0 0.1 0 0.1 0 0.1 0 0.2-0.1 0.2-0.1 0 0 0 0 0 0 0 0 0 0 0-0.1 0.1-0.1 0.1-0.1 0.1-0.2 0 0 0-0.1 0.1-0.1 0 0 0 0 0-0.1l1.5-5.9c0.1-0.3 0-0.7-0.3-1l-7.2-7.2c-0.2-0.2-0.6-0.3-1-0.3l-5.9 1.5c0 0 0 0-0.1 0 0 0-0.1 0-0.1 0.1 -0.1 0-0.1 0.1-0.2 0.1 0 0 0 0-0.1 0 0 0 0 0 0 0 -0.1 0.1-0.1 0.1-0.1 0.2 0 0 0 0.1-0.1 0.1 0 0.1 0 0.2 0 0.3 0 0 0 0.1 0 0.1 0 0 0 0 0 0L72 23.4c-9.4-7-22.8-6.3-31.4 2.3 -4.3 4.3-6.8 10-7 16 -6.1 0.2-11.7 2.7-16 7C13.1 53.3 10.6 59.3 10.6 65.8zM34.1 47.6c0.9 4.6 3.2 8.8 6.5 12.1 3.4 3.4 7.7 5.7 12.4 6.6 -0.1 4.7-2 9.2-5.4 12.5 -7.2 7.2-18.9 7.2-26.1 0 -3.5-3.5-5.4-8.1-5.4-13.1 0-4.9 1.9-9.6 5.4-13.1 3.4-3.3 7.8-5.3 12.5-5.4C34.1 47.5 34.1 47.6 34.1 47.6zM51.6 48.8c-3.4-3.4-7.7-5.7-12.4-6.6 0.1-4.7 2-9.2 5.4-12.5 7.2-7.2 18.9-7.2 26.1 0 3.5 3.5 5.4 8.1 5.4 13.1 0 4.9-1.9 9.6-5.4 13.1 -3.4 3.4-7.8 5.2-12.5 5.4C57.3 56.5 55.1 52.2 51.6 48.8zM80.1 19l-1.8-1.8 2.5-0.6L80.1 19zM78.9 20.6L75 22.3l1.6-3.9L78.9 20.6zM73.9 19.7l-0.1-4.1 1.3 1.3L73.9 19.7zM80.4 22.2l1.4 1.4 -4.5-0.1L80.4 22.2zM83.8 22.7l-2.1-2.1 0.9-3.6 2 2L83.8 22.7zM80.2 14.6l-3.6 0.9 -1.9-1.9 3.7-0.9L80.2 14.6zM42.1 27.1c8.6-8.6 22.6-8.6 31.2 0 4.2 4.2 6.5 9.7 6.5 15.6s-2.3 11.4-6.5 15.6c-3.9 3.9-9.1 6.2-14.6 6.4 0-0.5-0.1-1.1-0.1-1.6 5.2-0.2 9.9-2.3 13.6-6 3.9-3.9 6-9 6-14.5 0-5.5-2.1-10.6-6-14.5 -8-8-21-8-28.9 0 -3.9 3.9-6 9.2-6 14.7 0 0 0 0 0 0 -0.1 2.2 0.7 4.9 0.7 5.1 0.9 3.4 2.8 6.6 5.3 9.1 2.6 2.6 5.9 4.5 9.6 5.4 0 0 0 0 0 0 0.1 0.6 0.2 1.1 0.2 1.7 -4.1-0.9-7.9-2.9-10.9-5.9 -3.1-3.1-5.1-6.9-6-11.1 -0.1-0.9-0.5-3.4-0.5-4.5 0 0 0 0 0 0s0 0 0 0C35.6 36.8 37.9 31.3 42.1 27.1zM40 48.1c2.9 0.9 5.5 2.5 7.6 4.6 2.2 2.2 3.7 4.8 4.6 7.7 -2.9-0.9-5.5-2.5-7.7-4.6C42.5 53.6 40.9 51 40 48.1zM33.7 43.8c0 0.5 0.1 1.1 0.2 1.6 -5.2 0.2-10 2.3-13.7 6 -3.9 3.9-6 9-6 14.5 0 5.5 2.1 10.6 6 14.5 4 4 9.2 6 14.5 6s10.5-2 14.5-6c3.9-3.9 6-9 6-14.5 0-5.5-2.1-10.6-6-14.5 -2.6-2.6-5.8-4.4-9.4-5.4 -0.1 0-0.1 0-0.2 0 -0.1-0.5-0.2-1.1-0.2-1.7 4.2 0.9 7.9 2.9 11 6 3.3 3.3 5.4 7.6 6.2 12.1 0 0 0 0 0 0 0.1 0.6 0.2 1.2 0.2 1.7 0 0.6 0.1 1.2 0.1 1.8 0 5.9-2.3 11.4-6.5 15.6 -4.2 4.2-9.7 6.5-15.6 6.5 -5.9 0-11.4-2.3-15.6-6.5s-6.5-9.7-6.5-15.6 2.3-11.4 6.5-15.6C23 46.2 28.2 44 33.7 43.8z"/></svg>